<?xml version="1.0" standalone="no"?>
<!DOCTYPE svg PUBLIC "-//W3C//DTD SVG 20010904//EN"
 "http://www.w3.org/TR/2001/REC-SVG-20010904/DTD/svg10.dtd">
<svg version="1.0" xmlns="http://www.w3.org/2000/svg"
 width="2004.000000pt" height="2116.000000pt" viewBox="0 0 2004.000000 2116.000000"
 preserveAspectRatio="xMidYMid meet">

<g transform="translate(0.000000,2116.000000) scale(0.100000,-0.100000)"
fill="#000000" stroke="none">
<path d="M9075 21133 c-1032 -48 -2127 -294 -3055 -688 -176 -74 -562 -264
-718 -354 l-123 -70 -109 55 c-60 30 -138 62 -173 70 -64 16 -66 16 -119 -8
-159 -73 -309 -297 -378 -563 -17 -66 -34 -123 -38 -126 -4 -4 -54 -47 -112
-96 -312 -266 -623 -593 -875 -921 l-76 -99 -102 -25 c-212 -53 -485 -185
-534 -260 -73 -110 -65 -313 23 -581 l26 -79 -85 -176 c-349 -722 -594 -1566
-711 -2452 -59 -446 -80 -809 -74 -1268 l5 -333 -97 -162 c-299 -504 -648
-947 -1071 -1362 -183 -179 -324 -304 -474 -419 -49 -38 -98 -78 -107 -89 -25
-27 -22 -71 6 -104 22 -26 29 -28 87 -26 202 8 667 122 1022 251 59 22 107 38
107 36 0 -9 -120 -199 -219 -348 -86 -128 -111 -173 -111 -199 0 -44 34 -77
81 -77 86 0 547 142 824 255 87 35 161 63 163 61 9 -10 53 -282 71 -442 101
-912 45 -2197 -165 -3769 -47 -351 -92 -649 -174 -1155 -38 -234 -85 -540
-104 -680 -251 -1829 -150 -3096 316 -3943 199 -361 476 -660 822 -889 48 -32
97 -58 108 -58 44 0 87 39 88 80 0 13 -36 94 -79 180 -75 148 -156 329 -149
335 2 2 32 -15 68 -37 144 -89 367 -178 530 -212 253 -51 475 -48 723 10 129
31 161 53 161 109 0 42 -6 48 -115 125 -161 113 -398 387 -542 627 -101 168
-236 450 -247 516 -35 215 -38 1069 -6 1447 72 833 226 1542 476 2195 107 279
268 624 255 545 -3 -19 -24 -138 -45 -265 -108 -633 -149 -1080 -157 -1707 -6
-443 2 -666 33 -968 134 -1326 599 -2326 1378 -2963 l70 -57 149 0 149 0 -119
86 c-424 309 -747 701 -992 1204 -256 524 -407 1121 -478 1890 -22 243 -25
1048 -5 1310 53 687 147 1306 282 1869 22 90 40 178 40 195 0 69 -94 103 -143
54 -28 -28 -162 -250 -255 -424 -409 -761 -683 -1711 -786 -2729 -28 -273 -38
-447 -45 -760 l-6 -310 -27 112 c-57 233 -115 599 -142 893 -50 535 -50 1175
0 1789 8 106 16 211 16 233 1 78 -78 116 -138 65 -26 -22 -27 -27 -44 -237
-29 -347 -40 -609 -40 -990 0 -491 24 -867 81 -1255 151 -1041 520 -1889 1031
-2370 l89 -84 -48 -8 c-92 -16 -391 -9 -483 10 -257 55 -503 172 -704 335 -78
64 -120 73 -159 34 -18 -19 -22 -33 -20 -86 1 -80 33 -204 83 -324 20 -50 34
-92 29 -92 -17 0 -256 246 -321 330 -290 376 -470 818 -567 1394 -147 866
-100 1898 159 3471 207 1264 319 2241 371 3265 15 291 15 1044 0 1275 -22 343
-66 702 -105 852 -16 61 -19 57 74 103 82 41 234 133 282 171 l36 29 6 -72
c80 -980 205 -1698 432 -2473 179 -609 450 -1276 682 -1679 61 -107 109 -127
170 -73 13 12 22 32 22 49 0 16 -29 124 -64 241 -199 657 -324 1287 -381 1917
-30 331 -29 330 99 -45 395 -1153 702 -1821 977 -2131 232 -261 809 -644 1594
-1056 455 -240 470 -245 519 -187 48 57 39 76 -105 227 -333 347 -688 880
-983 1477 -94 190 -144 297 -132 284 2 -2 46 -58 97 -124 371 -481 837 -965
1182 -1230 72 -55 77 -62 73 -90 -38 -222 -26 -920 20 -1172 6 -31 -2 -41
-207 -249 -118 -119 -235 -234 -260 -255 l-47 -39 25 98 c39 158 40 176 10
206 -34 34 -94 36 -124 3 -47 -50 -195 -336 -282 -544 -43 -103 -60 -131 -105
-176 -97 -97 -134 -212 -107 -330 12 -49 10 -61 -28 -201 -76 -281 -142 -613
-185 -936 -28 -205 -56 -500 -56 -579 0 -28 -4 -51 -9 -51 -10 0 -77 236 -126
445 -143 615 -186 1358 -120 2075 31 330 97 729 165 1003 17 65 30 132 30 148
0 62 -84 101 -137 64 -57 -40 -177 -633 -227 -1125 -41 -403 -47 -1067 -12
-1408 136 -1311 589 -2342 1397 -3175 l134 -138 211 3 210 3 -28 145 c-81 419
-33 656 233 1142 74 135 245 423 304 511 l32 48 22 -103 c86 -415 120 -768
121 -1268 0 -91 3 -236 7 -322 l6 -158 84 0 83 0 0 28 c-1 143 -21 940 -25
1017 -20 326 -82 665 -232 1260 -41 165 -103 446 -137 625 l-63 325 68 26 c76
30 156 73 241 130 l57 39 32 -47 c92 -138 239 -242 391 -278 82 -19 255 -19
337 0 93 22 186 71 253 134 32 29 60 52 62 50 2 -2 49 -186 105 -409 232 -921
452 -1728 508 -1865 56 -139 119 -261 276 -531 222 -383 233 -409 202 -464 -8
-14 -14 -28 -15 -32 0 -5 73 -8 161 -8 l162 0 -7 418 c-18 1162 -56 2467 -121
4197 -40 1056 -38 1023 -56 1041 -9 8 -67 26 -130 40 -325 68 -680 213 -957
388 -380 241 -687 575 -877 956 -48 96 -105 228 -105 244 0 7 23 18 51 24 74
17 79 16 79 -17 0 -54 49 -185 102 -275 149 -250 494 -592 812 -805 346 -232
703 -384 1036 -442 106 -19 383 -16 500 4 280 48 531 162 798 361 130 97 392
356 492 486 206 268 383 590 501 916 27 73 47 113 54 110 7 -2 33 -8 59 -11
25 -4 46 -13 46 -19 0 -7 -20 -63 -44 -126 -202 -531 -441 -909 -787 -1245
-270 -262 -545 -435 -852 -535 -86 -29 -131 -49 -138 -62 -7 -13 -4 -191 10
-586 49 -1344 67 -1905 102 -3327 5 -231 13 -716 16 -1077 l6 -658 149 0 150
0 -20 33 c-104 169 -105 175 -73 268 10 30 44 112 76 184 90 206 152 366 191
493 100 331 423 1690 570 2398 l27 131 80 -53 c109 -73 209 -105 351 -112 68
-3 129 0 165 8 135 30 288 146 394 300 l54 79 68 -50 c106 -77 254 -139 332
-139 28 0 28 2 3 -96 -39 -151 -60 -256 -90 -447 -17 -106 -55 -320 -85 -477
-88 -459 -107 -599 -144 -1045 -11 -132 -26 -298 -32 -370 -9 -101 -9 -214 1
-510 7 -209 11 -415 9 -457 -4 -69 -8 -80 -34 -108 l-29 -30 107 0 106 0 10
37 c14 50 14 242 0 595 -11 268 -10 305 11 565 12 153 25 291 29 306 5 23 33
-51 139 -375 204 -622 253 -810 232 -889 -12 -45 -63 -150 -101 -206 l-21 -33
104 0 105 0 36 78 c80 172 77 228 -34 616 -44 156 -366 1124 -398 1198 l-20
48 24 152 c13 84 49 281 79 438 30 157 66 362 81 455 14 94 44 249 66 345 22
96 42 185 45 196 3 15 14 24 37 28 52 10 185 78 253 130 34 25 89 75 122 110
l60 64 98 -8 c160 -14 320 7 454 60 69 27 186 105 207 137 12 18 18 21 24 11
12 -21 76 -357 103 -543 130 -883 83 -1663 -141 -2334 -129 -386 -328 -746
-572 -1033 -42 -50 -87 -103 -100 -119 l-24 -29 116 0 115 0 55 67 c363 447
606 997 721 1633 147 812 73 1824 -205 2808 -27 95 -49 175 -49 179 0 27 230
-323 343 -522 311 -549 588 -1266 753 -1947 l28 -117 -27 -158 c-113 -657
-333 -1272 -651 -1816 l-75 -128 102 3 102 3 48 85 c87 152 254 501 320 670
225 572 351 1142 397 1795 13 193 13 723 0 924 -76 1134 -391 2319 -919 3461
-101 217 -219 442 -243 463 -50 42 -138 6 -138 -58 0 -16 50 -129 118 -264
486 -970 836 -2111 962 -3131 48 -389 72 -910 55 -1194 l-7 -129 -43 139
c-141 451 -330 918 -526 1294 -209 401 -501 827 -729 1062 -64 67 -80 78 -108
78 -39 0 -92 -46 -92 -79 0 -11 20 -73 44 -138 36 -98 62 -176 112 -332 4 -12
2 -12 -13 0 -176 135 -549 502 -721 709 l-112 135 0 200 c0 448 -47 848 -136
1164 l-27 94 54 46 c623 532 1033 960 1210 1262 162 279 320 914 449 1804 28
196 99 764 101 810 4 83 59 -330 85 -635 36 -426 29 -1153 -15 -1632 -19 -198
-17 -229 17 -254 21 -16 66 -18 94 -3 72 39 242 747 322 1349 68 504 90 921
83 1535 -7 532 -28 849 -88 1323 -10 84 -19 159 -19 166 0 10 32 1 105 -30
135 -56 294 -107 480 -154 l150 -38 23 -164 c171 -1216 865 -2944 1941 -4831
237 -416 319 -569 465 -869 463 -948 713 -1811 766 -2643 61 -959 -186 -1866
-711 -2607 -352 -496 -854 -956 -1410 -1291 l-161 -97 165 0 165 0 126 84
c273 184 490 361 725 591 978 960 1401 2180 1246 3596 -109 990 -487 2026
-1180 3234 -940 1638 -1577 3109 -1864 4306 -58 242 -131 644 -119 654 2 2 38
-3 80 -11 124 -21 303 -43 453 -54 208 -15 212 -15 246 19 55 56 52 61 -193
308 -121 123 -219 225 -217 227 2 2 85 -6 185 -19 449 -57 961 -60 1034 -7 28
21 38 77 21 111 -6 10 -57 43 -113 72 -522 267 -1152 744 -1654 1251 l-181
183 -101 302 c-227 679 -444 1208 -742 1808 -246 495 -439 831 -721 1255
-1204 1811 -2744 2874 -4569 3154 -398 61 -885 88 -1275 69z m810 -182 c1044
-96 1934 -402 2775 -955 1342 -882 2463 -2390 3262 -4386 118 -296 273 -720
263 -720 -2 0 -49 57 -103 128 -277 357 -504 716 -704 1112 -49 96 -98 183
-109 193 -50 42 -129 1 -129 -66 0 -39 133 -309 265 -537 590 -1024 1456
-1915 2496 -2566 l154 -96 -190 6 c-215 6 -406 25 -640 62 -88 14 -187 28
-221 31 -57 5 -62 4 -82 -22 -12 -15 -22 -40 -22 -54 0 -52 99 -180 289 -373
68 -70 123 -129 120 -132 -2 -2 -58 2 -124 10 -451 51 -933 176 -1204 312 -52
26 -98 54 -102 62 -4 8 -24 110 -44 225 -190 1080 -559 2260 -1044 3332 -208
461 -221 483 -284 483 -37 0 -77 -40 -77 -79 0 -16 39 -112 86 -213 1067
-2270 1505 -4564 1283 -6718 -17 -172 -76 -601 -83 -608 -2 -1 -6 138 -9 310
-13 633 -76 1191 -189 1663 -41 175 -53 194 -116 195 -55 0 -78 -33 -86 -121
-130 -1437 -316 -2485 -526 -2971 -82 -189 -243 -391 -570 -718 -208 -208
-446 -427 -674 -618 -60 -51 -111 -91 -113 -89 -2 2 30 73 71 158 225 468 422
1092 556 1759 47 235 100 561 100 615 0 61 -95 100 -138 57 -10 -10 -49 -94
-86 -187 -350 -867 -761 -1597 -1196 -2124 -41 -49 -75 -89 -77 -87 -1 1 13
54 33 117 404 1308 629 2677 685 4169 13 342 7 1204 -10 1490 -6 91 -13 214
-17 274 l-7 109 74 -6 c41 -3 80 -2 88 2 27 17 1 59 -88 144 l-90 85 -21 214
c-77 785 -206 1574 -361 2202 -69 282 -74 295 -114 312 -39 16 -89 3 -105 -26
-17 -32 -12 -66 49 -309 71 -281 156 -695 211 -1026 45 -274 112 -752 108
-774 -2 -9 -34 14 -87 63 -213 195 -460 360 -753 501 -158 76 -188 84 -223 61
-44 -29 -48 -48 -30 -154 10 -57 19 -185 22 -310 l6 -213 -24 5 c-40 9 -207
24 -339 31 -168 9 -452 -15 -596 -51 -19 -5 -22 3 -43 108 -76 386 -230 880
-443 1416 -56 139 -98 256 -94 260 4 4 164 7 354 7 280 0 373 -4 482 -18 328
-45 554 -110 808 -234 132 -64 166 -72 185 -42 20 32 -1 63 -80 116 -324 215
-724 330 -1227 352 -163 7 -487 -1 -566 -14 l-36 -6 -79 173 c-169 376 -438
910 -636 1264 -78 139 -100 164 -147 164 -25 0 -62 -28 -72 -55 -6 -16 -2 -68
11 -152 177 -1155 233 -2380 148 -3298 -11 -120 -22 -221 -24 -223 -5 -5 -19
29 -99 237 -410 1066 -686 2333 -791 3636 -15 176 -19 203 -38 223 -36 38
-108 29 -132 -17 -11 -23 -11 -53 1 -207 103 -1299 377 -2574 789 -3663 141
-373 313 -758 461 -1034 47 -87 83 -161 80 -164 -7 -7 -119 31 -250 84 -182
73 -201 57 -201 -174 0 -140 -2 -153 -18 -153 -9 0 -84 22 -165 49 -243 80
-488 206 -683 353 -50 37 -101 71 -114 74 -32 8 -83 -21 -91 -52 -17 -67 30
-342 90 -524 18 -58 33 -106 31 -108 -1 -1 -58 55 -126 126 -280 289 -472 569
-688 1003 -412 829 -675 1915 -776 3204 -17 215 -35 619 -35 773 0 96 -2 105
-25 127 -32 33 -84 34 -113 3 -24 -27 -53 -138 -111 -420 -124 -607 -182
-1139 -196 -1793 l-5 -249 -148 -51 c-180 -63 -240 -89 -407 -172 -228 -115
-426 -242 -623 -400 -57 -46 -104 -83 -105 -83 -9 0 24 486 49 727 6 57 5 63
-19 87 -44 44 -127 29 -140 -26 -16 -67 -42 -394 -57 -718 l-11 -234 -47 -54
c-97 -111 -112 -133 -112 -171 0 -20 7 -46 15 -58 21 -30 75 -46 109 -33 15 5
29 10 32 10 2 0 4 -73 4 -162 0 -418 41 -1055 100 -1579 l21 -175 -51 -150
c-56 -167 -63 -207 -27 -159 12 17 40 50 62 74 l40 44 12 -74 c6 -41 12 -100
12 -131 1 -32 7 -75 15 -95 8 -21 17 -60 21 -88 4 -27 27 -160 51 -295 231
-1271 608 -2481 1140 -3660 111 -247 363 -751 492 -985 55 -99 98 -182 96
-184 -2 -2 -57 39 -121 91 -524 424 -1109 1097 -1603 1843 -40 61 -79 116 -88
123 -9 6 -33 12 -53 12 -50 0 -83 -39 -76 -90 6 -46 117 -341 213 -567 101
-239 360 -759 480 -963 156 -266 382 -602 506 -752 22 -27 37 -48 34 -48 -11
0 -105 49 -291 153 -761 423 -1190 741 -1367 1012 -222 341 -473 913 -766
1746 -92 262 -270 808 -322 989 -25 85 -54 120 -101 120 -50 0 -76 -36 -84
-116 -11 -100 2 -609 20 -819 32 -359 94 -782 164 -1112 16 -76 29 -139 27
-140 -10 -10 -181 479 -263 747 -450 1486 -583 3138 -392 4870 59 540 174
1199 305 1751 61 259 63 274 34 304 -25 27 -75 33 -109 15 -25 -13 -34 -39
-85 -255 -178 -753 -299 -1519 -356 -2255 -32 -419 -41 -680 -39 -1175 l1
-469 -38 -34 c-167 -144 -566 -347 -953 -484 -69 -25 -330 -108 -338 -108 -1
0 33 55 76 123 143 226 222 382 224 443 1 42 -35 84 -74 84 -15 0 -101 -29
-191 -64 -89 -35 -242 -89 -338 -121 -175 -56 -479 -139 -487 -132 -2 2 27 30
64 63 109 94 425 408 547 544 732 814 1266 1803 1525 2825 39 152 40 187 5
214 -61 48 -123 15 -143 -76 -23 -104 -111 -404 -163 -558 -88 -261 -291 -745
-306 -730 -3 2 -4 103 -3 222 7 1137 285 2396 737 3352 l59 124 50 -84 c113
-191 327 -440 426 -494 40 -21 70 -29 123 -33 85 -5 115 9 262 118 52 39 94
68 94 65 0 -3 -7 -22 -16 -43 -42 -100 -147 -384 -192 -522 -90 -276 -142
-496 -166 -702 -21 -177 -10 -197 138 -244 43 -13 142 -36 219 -49 193 -34
309 -66 467 -130 182 -74 224 -73 261 10 75 170 173 1344 189 2267 0 4 6 5 14
2 18 -7 23 -32 75 -339 90 -534 129 -853 137 -1105 3 -96 10 -190 16 -208 13
-43 63 -67 104 -52 65 25 332 356 529 655 106 162 250 401 259 431 8 25 -57
262 -125 460 -85 246 -171 431 -262 568 l-40 59 133 130 c398 385 790 663
1252 887 521 252 1028 389 1668 452 183 18 942 18 1145 0 961 -85 1715 -339
2285 -770 126 -95 299 -257 393 -367 95 -111 158 -136 243 -94 47 22 79 65 89
119 7 40 -38 176 -121 365 -62 142 -298 608 -335 661 -44 64 -178 185 -291
261 -541 367 -1409 636 -2343 727 -509 50 -1122 46 -1560 -10 -652 -83 -1343
-320 -1934 -662 l-104 -60 -90 94 c-99 104 -228 212 -357 299 -47 32 -86 60
-87 64 -3 7 208 123 382 209 682 338 1497 590 2385 737 295 48 537 75 900 99
110 7 748 -3 865 -13z m-5552 -1884 c-3 -74 0 -206 7 -295 l12 -162 -32 -37
c-60 -68 -84 -136 -88 -244 l-4 -96 -87 28 c-161 51 -386 89 -539 89 l-73 0
19 28 c63 87 260 311 412 466 157 160 362 356 374 356 2 0 2 -60 -1 -133z
m373 -513 c51 -24 103 -78 127 -133 43 -98 14 -235 -65 -307 -53 -48 -95 -64
-165 -64 -145 1 -248 111 -247 265 0 56 5 80 26 121 65 124 205 174 324 118z
m-331 -558 c24 -19 61 -40 80 -47 26 -10 34 -17 29 -29 -45 -101 -58 -243 -30
-322 16 -43 7 -56 -57 -83 -76 -32 -181 -14 -246 42 -139 119 -116 358 42 440
83 42 125 42 182 -1z m558 -44 c83 -44 127 -122 127 -223 0 -84 -16 -132 -62
-184 -52 -59 -109 -85 -184 -85 -206 1 -320 231 -204 413 23 37 35 46 67 52
21 3 63 19 93 35 63 34 88 32 163 -8z m5017 -1287 c142 -290 283 -595 278
-601 -2 -2 -62 -14 -132 -28 -147 -29 -176 -46 -176 -103 0 -38 37 -83 69 -83
10 0 72 9 136 20 191 33 175 39 228 -87 116 -276 226 -571 315 -843 58 -179
134 -444 148 -514 6 -34 5 -35 -33 -41 -213 -37 -404 -120 -544 -236 -56 -47
-60 -53 -57 -87 2 -29 8 -39 28 -45 22 -8 39 -1 113 48 48 31 125 74 171 96
78 36 347 132 353 125 4 -4 44 -199 41 -201 -2 -2 -43 -19 -93 -40 -242 -99
-471 -261 -604 -429 -84 -105 -70 -110 88 -30 174 88 193 60 85 -124 -59 -100
-67 -120 -72 -177 -5 -67 5 -95 35 -95 8 0 51 35 96 78 91 86 215 187 222 180
3 -2 -2 -39 -10 -82 -14 -72 -19 -136 -12 -136 2 0 25 7 51 16 64 22 166 16
203 -12 68 -50 67 -119 -3 -194 -56 -60 -141 -100 -219 -103 l-57 -2 6 -110
c15 -239 58 -470 116 -608 65 -157 207 -331 347 -426 82 -55 220 -121 253
-121 38 0 70 34 70 74 0 41 -11 50 -130 108 -265 130 -424 365 -474 703 -9 61
-19 124 -21 141 -5 29 0 34 72 86 75 53 164 108 175 108 3 0 9 -17 12 -37 13
-71 57 -190 92 -249 98 -164 238 -243 376 -215 57 12 98 34 86 46 -3 4 -39 11
-80 16 -145 18 -249 97 -318 241 -22 46 -47 116 -55 157 -9 40 -17 78 -18 83
-2 11 136 68 225 93 l56 16 7 62 c4 34 17 86 30 114 70 155 232 105 276 -83
l12 -51 95 -6 c76 -5 209 -24 219 -31 1 -1 7 -43 13 -94 14 -115 2 -204 -41
-309 -17 -41 -29 -76 -26 -79 9 -9 77 79 102 132 34 72 44 125 45 232 0 92 0
93 23 87 51 -16 206 -79 258 -107 l56 -29 7 -82 c28 -359 -141 -747 -384 -876
-35 -19 -66 -43 -72 -57 -15 -33 0 -74 34 -93 24 -14 32 -13 82 2 203 64 397
302 480 588 99 342 39 780 -164 1207 -32 67 -56 122 -53 122 15 0 194 -100
288 -161 145 -94 249 -199 300 -302 l38 -77 -6 -163 c-4 -89 -16 -225 -27
-302 -31 -217 -27 -246 29 -215 23 12 118 135 164 213 l35 58 7 -66 c10 -93
-1 -1287 -14 -1485 -16 -253 -30 -424 -52 -670 l-20 -225 -36 -53 c-129 -191
-521 -609 -763 -816 -238 -203 -553 -426 -813 -575 -559 -321 -1339 -596
-1832 -645 -453 -46 -881 -46 -1315 -1 -814 85 -1497 289 -1940 579 -364 239
-559 510 -615 856 -34 215 -124 533 -225 796 -45 116 -74 213 -106 359 -45
202 -124 604 -124 630 0 9 27 -7 68 -40 37 -30 72 -55 78 -55 13 0 84 90 108
137 28 56 22 73 -63 157 -133 132 -157 221 -101 370 29 75 195 297 325 434 54
57 99 101 100 100 1 -2 -4 -50 -11 -108 -7 -58 -13 -147 -13 -199 -1 -85 1
-92 17 -86 111 49 182 56 249 25 83 -37 92 -118 23 -202 -42 -50 -141 -98
-220 -105 l-61 -6 6 -41 c37 -247 101 -423 216 -593 126 -185 298 -320 494
-385 60 -19 91 -23 210 -23 77 0 152 3 167 8 57 16 71 101 23 133 -20 13 -36
14 -99 5 -162 -23 -311 18 -463 125 -116 82 -252 262 -313 414 l-32 81 17 47
c43 116 189 362 214 362 5 0 14 -21 20 -47 34 -135 146 -290 253 -348 46 -25
64 -29 133 -30 78 0 134 16 142 40 2 7 -28 16 -72 22 -146 21 -253 100 -319
236 -35 71 -66 171 -66 212 0 29 92 97 205 151 l91 43 12 58 c15 72 42 117 83
138 64 34 147 -11 194 -105 l24 -47 88 -7 c48 -3 113 -12 143 -19 52 -12 55
-14 68 -57 9 -28 15 -96 16 -175 1 -128 0 -131 -35 -218 -20 -48 -33 -90 -28
-93 5 -2 29 23 54 57 73 99 107 248 87 374 -6 33 -9 61 -7 63 10 11 221 -113
230 -135 2 -7 9 -63 16 -125 27 -272 -39 -532 -192 -754 -58 -83 -63 -121 -23
-153 39 -31 63 -26 108 22 94 99 198 323 237 507 26 124 31 358 10 480 -32
190 -96 390 -172 542 -22 43 -39 80 -39 83 0 3 11 -2 25 -11 36 -23 32 -4 -15
70 -22 35 -40 66 -40 69 0 3 24 19 53 35 60 34 107 83 107 112 0 47 -105 95
-325 150 -99 25 -150 42 -150 51 0 21 60 50 120 56 30 3 55 9 55 14 0 18 -64
51 -137 70 -61 16 -112 21 -240 22 l-162 2 -20 75 c-11 41 -23 89 -27 106 l-6
30 79 -7 c43 -4 153 -10 245 -13 l167 -7 16 25 c19 28 9 58 -26 76 -34 19
-229 40 -371 40 -121 0 -137 2 -142 18 -33 106 -107 575 -136 852 -22 215 -47
636 -39 645 8 7 318 85 340 85 13 0 22 -26 43 -117 158 -684 387 -1314 651
-1788 98 -177 278 -448 391 -589 166 -207 381 -415 587 -568 60 -44 87 -58
113 -58 42 0 84 37 84 73 0 14 -27 80 -59 148 -75 157 -124 290 -161 437 -16
64 -29 117 -27 118 1 1 43 -23 92 -53 228 -140 530 -263 780 -318 139 -30 167
-26 189 27 11 28 11 46 0 108 -7 41 -13 103 -14 137 l0 62 48 -20 c153 -66
395 -118 453 -97 67 23 65 80 -5 195 -84 138 -187 333 -275 520 -79 166 -81
173 -72 215 16 72 50 341 66 528 49 575 45 1282 -10 2000 -21 269 -70 747 -90
880 -7 46 67 -91 235 -435z m-3195 -156 c29 -294 79 -650 129 -924 37 -202 37
-205 -15 -205 -26 0 -211 -32 -263 -45 l-28 -8 6 224 c16 515 45 856 108 1264
l22 140 8 -95 c4 -52 19 -210 33 -351z m-325 -1604 c22 -376 68 -753 135
-1095 29 -148 92 -420 111 -482 4 -14 -1 -18 -23 -18 -16 0 -92 -11 -169 -25
-231 -40 -434 -116 -622 -233 -46 -29 -87 -52 -92 -52 -26 0 -121 184 -155
303 -9 32 -26 67 -38 77 -29 28 -82 26 -112 -4 -58 -58 -172 -342 -239 -596
-40 -148 -38 -151 -61 140 -30 394 -36 524 -42 945 l-6 431 89 83 c240 225
523 420 837 577 175 88 371 168 374 151 1 -6 7 -97 13 -202z m6069 -466 c55
-35 149 -99 208 -143 114 -84 390 -350 415 -401 9 -16 18 -58 20 -92 l4 -63
-45 27 c-267 159 -564 280 -823 338 l-78 17 0 167 c0 93 -3 203 -7 246 l-6 78
106 -56 c58 -30 151 -84 206 -118z m-6973 -1381 c9 -18 36 -63 61 -100 l44
-67 -53 -47 c-29 -26 -88 -84 -130 -127 -44 -45 -78 -73 -78 -64 0 37 125 437
137 437 1 0 10 -15 19 -32z m7524 -3337 c-63 -440 -145 -878 -245 -1309 -51
-221 -154 -622 -162 -631 -7 -9 -198 32 -239 50 -107 47 -333 95 -569 120
-135 14 -183 9 -277 -30 l-73 -31 -115 24 c-198 41 -283 85 -347 179 -37 55
-70 150 -79 227 l-6 55 113 49 c496 214 986 521 1401 878 165 142 415 391 538
535 47 55 86 99 88 98 2 -2 -11 -98 -28 -214z m-6915 -936 c455 -378 1210
-640 2150 -744 306 -34 536 -44 873 -38 l313 6 -7 -22 c-46 -152 -208 -267
-497 -351 l-86 -24 -61 19 c-34 10 -84 19 -112 19 -46 0 -288 -57 -423 -100
-33 -11 -125 -33 -205 -50 -306 -65 -454 -112 -655 -210 -224 -108 -371 -232
-448 -377 l-34 -65 -36 64 c-138 247 -435 878 -602 1278 -67 160 -255 644
-255 656 0 9 10 2 85 -61z m7674 -171 c-98 -403 -261 -907 -379 -1169 l-29
-64 -63 63 c-35 34 -88 79 -119 100 l-57 37 78 117 c174 262 362 595 518 914
47 97 88 176 90 174 1 -2 -16 -79 -39 -172z m-3022 -393 c77 -323 249 -444
717 -505 66 -9 121 -18 124 -20 6 -6 -54 -115 -129 -234 -237 -377 -553 -681
-829 -797 -139 -58 -203 -70 -380 -69 -182 1 -297 19 -465 75 -319 106 -682
356 -948 653 l-80 90 144 37 c225 58 375 122 497 214 102 77 178 194 202 312
l11 52 57 6 c251 29 685 138 967 244 44 17 82 30 85 31 3 0 15 -40 27 -89z
m2338 -826 c64 -45 151 -135 175 -181 13 -23 10 -33 -34 -121 -26 -53 -90
-167 -142 -253 -52 -87 -94 -165 -94 -174 0 -22 19 -58 39 -73 40 -31 75 -16
203 83 68 54 138 110 157 126 18 16 37 26 41 21 10 -10 55 -200 74 -313 40
-231 69 -681 58 -902 l-4 -88 -68 -45 c-159 -106 -436 -219 -683 -279 -205
-50 -654 -113 -673 -94 -7 8 43 155 67 197 40 67 18 135 -46 147 -48 9 -78
-13 -114 -84 -45 -89 -77 -204 -101 -362 -12 -80 -24 -147 -26 -149 -2 -2 -73
-21 -158 -42 -248 -61 -577 -111 -832 -125 l-112 -7 -6 124 c-15 331 -26 743
-19 749 5 4 51 22 103 40 189 67 454 219 647 372 108 85 319 294 414 409 136
165 293 397 368 547 12 23 23 42 25 42 2 0 1 -20 -1 -44 -5 -38 -2 -48 20 -70
46 -46 84 -37 174 43 114 101 325 338 433 488 25 34 47 63 49 63 2 0 32 -20
66 -45z m-5249 -280 c198 -473 561 -890 1022 -1172 141 -87 418 -221 562 -272
139 -49 338 -106 402 -116 l47 -7 5 -62 c3 -33 10 -196 16 -361 5 -165 13
-344 16 -397 l6 -98 -118 0 c-331 0 -876 60 -1128 123 l-48 13 -28 74 c-52
144 -136 285 -209 355 -42 39 -94 40 -127 1 -37 -43 -31 -74 30 -150 65 -82
113 -166 94 -166 -38 0 -302 35 -428 56 -295 50 -672 155 -905 252 l-90 37
-12 105 c-31 274 -37 578 -17 843 l6 78 27 -18 c78 -52 179 -103 204 -103 16
0 38 10 52 25 42 41 34 75 -51 219 -41 71 -93 162 -115 202 l-40 72 21 51 c83
212 194 323 444 442 58 27 149 65 203 83 87 30 99 32 105 17 4 -9 28 -65 54
-126z m5854 -1833 c28 -35 50 -65 48 -67 -20 -18 -153 -96 -240 -141 -294
-150 -636 -256 -998 -308 -111 -16 -418 -41 -424 -35 -4 4 23 181 28 186 2 2
54 8 117 13 552 48 1041 189 1344 389 33 22 63 37 66 33 4 -4 30 -35 59 -70z
m484 -514 c72 -67 195 -175 272 -240 151 -125 184 -165 191 -231 9 -85 -75
-182 -197 -228 -129 -49 -271 -58 -502 -33 -56 6 -58 6 -85 -27 -16 -19 -66
-73 -113 -120 -69 -70 -102 -94 -174 -130 l-89 -44 -116 0 c-114 0 -118 1
-192 37 -79 39 -148 88 -231 165 -79 73 -121 59 -181 -59 -79 -156 -205 -287
-314 -328 -103 -38 -269 -20 -385 42 -67 35 -168 129 -168 156 0 9 27 157 59
327 32 171 67 354 76 408 l17 97 72 0 c232 0 603 57 884 136 289 81 612 224
802 355 l55 38 94 -100 c51 -55 152 -154 225 -221z m-7152 243 c351 -138 845
-253 1272 -295 82 -8 152 -19 156 -23 4 -4 15 -39 23 -77 l16 -69 -122 7
c-450 24 -935 114 -1254 232 -131 48 -283 117 -283 127 0 9 109 127 117 127 1
0 35 -13 75 -29z m-234 -275 c269 -135 687 -251 1114 -311 153 -21 425 -45
523 -45 44 0 86 -4 93 -9 19 -12 204 -777 198 -818 -7 -48 -68 -137 -125 -182
-87 -68 -146 -85 -291 -85 -146 0 -199 16 -299 89 -61 45 -139 144 -167 211
-44 107 -85 110 -214 15 -214 -158 -395 -223 -556 -200 -123 17 -249 108 -316
226 -39 69 -74 87 -139 70 -24 -6 -116 -11 -204 -10 -130 0 -174 4 -236 21
-155 42 -283 129 -310 209 -26 81 9 129 243 320 157 130 326 281 483 435 61
59 111 108 113 108 1 0 42 -20 90 -44z m5092 -96 c0 -16 -8 -63 -25 -146 -3
-15 -15 -23 -37 -27 -18 -3 -99 -19 -179 -36 -229 -47 -404 -69 -756 -96 l-63
-4 0 84 0 84 33 5 c17 3 73 8 122 11 226 15 569 66 765 114 142 35 140 35 140
11z m-3140 -79 c222 -48 628 -90 950 -100 l225 -6 3 -84 3 -84 -253 6 c-254 6
-424 20 -683 58 -143 21 -275 46 -283 54 -4 4 -41 153 -42 168 0 5 8 6 18 3 9
-3 37 -10 62 -15z m3075 -293 c-3 -13 -30 -151 -60 -308 -30 -157 -67 -349
-83 -427 l-29 -142 -59 -72 c-153 -187 -317 -265 -486 -230 -66 14 -158 58
-207 98 l-33 29 -9 264 c-4 146 -10 358 -14 472 l-6 206 88 6 c292 21 618 65
818 110 84 19 86 19 80 -6z m-2815 -92 c219 -32 467 -53 726 -62 l200 -7 12
-316 c7 -174 15 -406 19 -516 l6 -200 -61 58 c-80 76 -104 75 -186 -6 -60 -58
-163 -122 -237 -147 -50 -17 -80 -21 -134 -18 -103 7 -172 43 -270 142 l-81
81 -28 115 c-177 726 -216 890 -216 900 0 9 12 11 38 7 20 -3 116 -17 212 -31z
m-3082 -555 c22 -16 22 -18 12 -136 -6 -66 -13 -250 -17 -410 -22 -1053 184
-1937 611 -2629 68 -109 156 -237 188 -273 20 -21 54 -140 44 -150 -9 -10
-391 380 -488 497 -255 310 -442 600 -617 960 l-76 155 3 175 c8 543 89 1177
218 1695 46 184 39 169 72 150 16 -10 38 -25 50 -34z m307 -101 c39 -7 140
-10 226 -8 l156 3 40 -50 c117 -148 267 -230 440 -242 64 -5 84 -10 87 -22 3
-9 30 -147 60 -307 31 -161 85 -408 120 -550 l64 -258 -117 -186 c-303 -476
-482 -816 -550 -1048 -27 -90 -51 -232 -51 -301 l0 -56 -24 35 c-52 78 -159
282 -220 419 -277 629 -404 1412 -367 2262 6 157 15 295 18 308 4 17 11 21 27
17 11 -3 53 -10 91 -16z m5281 -756 c-90 -401 -165 -718 -252 -1068 -150 -598
-183 -715 -256 -898 -39 -99 -72 -177 -74 -176 -2 2 -8 251 -13 553 -6 303
-16 712 -21 910 -22 733 -27 900 -24 904 2 2 30 -8 62 -22 124 -56 269 -71
385 -41 68 17 177 70 222 108 17 13 31 23 33 21 2 -1 -26 -132 -62 -291z
m-1653 183 c23 -19 58 -43 78 -56 l37 -21 6 -143 c15 -352 44 -1509 51 -2057
l6 -445 -22 40 c-12 22 -90 159 -174 305 -157 273 -234 420 -279 530 -44 108
-476 1705 -476 1759 0 7 21 1 50 -14 191 -97 434 -62 620 89 30 25 56 45 58
45 2 1 22 -14 45 -32z"/>
<path d="M13675 16585 c-14 -13 -25 -36 -25 -51 0 -15 31 -82 71 -150 279
-488 497 -1107 634 -1799 58 -292 125 -769 113 -805 -2 -6 -65 57 -140 142
-75 84 -203 219 -286 301 -134 132 -153 147 -184 147 -38 0 -75 -28 -83 -63
-7 -30 -65 -756 -65 -810 0 -56 27 -87 76 -87 50 0 72 15 83 58 5 20 19 171
32 336 l23 299 111 -114 c60 -63 195 -212 299 -332 105 -121 200 -223 215
-229 34 -13 69 0 94 34 20 27 20 29 4 245 -80 1023 -358 2015 -771 2747 -43
75 -85 140 -96 146 -33 18 -79 12 -105 -15z"/>
<path d="M3912 14945 c-54 -68 -149 -606 -184 -1030 -15 -194 -15 -772 1 -990
35 -497 136 -1144 186 -1203 29 -33 86 -36 116 -5 32 32 142 298 210 508 76
235 90 275 98 275 3 0 76 -125 161 -278 85 -152 165 -287 177 -299 22 -23 64
-30 98 -17 23 9 48 62 41 90 -9 36 -406 737 -428 757 -23 19 -69 22 -99 7 -34
-19 -124 -216 -184 -405 -64 -200 -95 -288 -101 -283 -6 7 -43 245 -64 420
-100 818 -71 1610 85 2255 44 184 34 223 -59 223 -25 0 -40 -7 -54 -25z"/>
<path d="M9717 10100 c-148 -11 -305 -37 -406 -67 -180 -52 -336 -150 -391
-245 -25 -45 -30 -63 -30 -124 0 -99 31 -210 96 -344 50 -101 66 -125 138
-195 89 -87 152 -129 273 -180 106 -45 132 -50 140 -29 7 19 6 20 -112 96
-117 74 -245 206 -289 297 -85 177 -68 375 40 470 155 136 536 216 868 182
159 -16 255 -68 292 -158 20 -47 18 -220 -5 -328 -33 -160 -90 -263 -225 -403
-92 -96 -93 -122 -2 -67 157 94 248 199 336 387 56 120 73 201 67 318 -8 167
-61 256 -189 321 -118 60 -360 87 -601 69z"/>
<path d="M16196 8359 c-42 -33 -35 -69 63 -312 1052 -2616 1411 -4716 1055
-6169 -126 -516 -329 -938 -627 -1307 -163 -201 -337 -349 -605 -512 l-96 -59
160 0 161 0 79 56 c108 77 174 133 274 230 82 80 90 85 243 153 1122 495 1656
1395 1596 2691 -22 466 -109 936 -278 1490 -294 967 -879 2167 -1591 3265
-171 262 -298 447 -326 473 -31 28 -73 28 -108 1z m567 -1006 c254 -423 419
-725 631 -1153 530 -1069 830 -1994 922 -2840 24 -217 24 -617 0 -805 -108
-853 -509 -1448 -1249 -1849 -48 -27 -90 -47 -92 -45 -2 2 30 58 71 124 514
826 679 1933 499 3345 -124 970 -430 2130 -884 3348 -17 45 -29 82 -27 82 2 0
60 -93 129 -207z"/>
<path d="M10320 5167 c-19 -6 -53 -30 -76 -52 -135 -136 -25 -361 168 -343
129 13 214 158 164 280 -20 46 -85 104 -133 117 -46 13 -77 13 -123 -2z m146
-111 c29 -29 34 -41 34 -81 0 -40 -5 -52 -34 -81 -29 -29 -41 -34 -80 -34
-115 0 -159 152 -62 211 50 31 102 25 142 -15z"/>
<path d="M10397 3566 c-87 -24 -147 -103 -147 -196 0 -113 87 -200 200 -200
66 0 107 18 151 67 76 84 70 203 -15 281 -24 22 -58 43 -77 47 -19 3 -41 8
-49 10 -8 2 -37 -2 -63 -9z m135 -115 c46 -52 49 -102 8 -154 -64 -81 -189
-41 -206 64 -6 39 26 95 66 117 40 21 101 8 132 -27z"/>
<path d="M10400 1959 c-78 -32 -129 -107 -130 -192 0 -63 18 -104 68 -149 147
-133 378 2 331 194 -27 116 -162 189 -269 147z m115 -83 c64 -27 93 -108 59
-166 -54 -91 -184 -72 -215 31 -15 49 11 105 61 131 42 22 51 22 95 4z"/>
<path d="M10475 300 c-124 -28 -189 -139 -154 -263 l10 -37 59 0 59 0 -23 25
c-59 64 -25 170 62 192 13 3 42 0 63 -6 76 -23 104 -120 53 -180 l-26 -31 57
0 c55 0 56 1 71 35 57 138 -82 299 -231 265z"/>
</g>
</svg>
